#!OML:ASF E:/inclinewalkrobotboard/Project1/Captureday1/Session1/subject1.ASF
:FULLY-SPECIFIED
:DEGREES
213
root 0 0 0 -4.43765530992642 -0.4452685988568028 0.8298257874365316
lowerback 12.300025339084964 -0.2401795668964617 -1.4720617454816451
upperback 1.4824514637451216 -0.34588216999547616 1.3089698332673876
thorax -5.339590973668986 -0.08625148797934246 2.1783390472528747
lowerneck -17.627396700010898 -3.0507511142656787 -2.144216510646306
upperneck 17.888510509816857 -3.5081660738616978 -0.21680119311841484
head 8.3704838679205 -1.833665479636824 -0.13228476924852717
rclavicle 3.2000756430693944E-15 1.8224425440835795E-15
rhumerus -49.778391949452306 -18.81180906402631 -75.03109613220708
rradius 23.491322259628852
rwrist -2.5411169752155303
rhand -21.360690129743062 27.445615360640396
rfingers 7.125020000000054
rthumb 4.99774478888877 -2.801569303964744
lclavicle -3.3078769370034E-16 -7.024962288030822E-15
lhumerus -35.941641677364046 -1.7273366148828533 84.90795935520248
lradius 29.068677034265697
lwrist 10.262881887956283
lhand -30.67461373741207 24.910131239850717
lfingers 7.125020000000039
lthumb -3.928456338663249 55.40093217792016
rfemur -27.451465544668338 26.98894001677789 41.00185858208769
rtibia 23.799124821535024
rfoot -8.894953333121398 -12.219162554949436
rtoes -2.696761624634888
lfemur -10.654883140973716 2.1505798913138197 -17.06105132410866
ltibia 60.62014445913911
lfoot 5.0166965748501156 -15.359404442362152
ltoes -15.656549198364972
214
root 0 0 0 -5.319154017893901 -1.4416364714388195 -0.2771813928646125
lowerback 12.719565620933082 0.1458497161407486 -0.16931169024550008
upperback 1.683558282552994 0.33480132344844915 1.4182058119924013
thorax -5.345691304025624 0.24391459565249296 1.4450753437316912
lowerneck -17.68643866568761 -3.176394086251368 -2.0378985228662083
upperneck 17.98478005502472 -3.7341276785397537 -0.053554536171580125
head 8.430673518924708 -1.9233466429896118 -0.13754190602288952
rclavicle 3.008373150235023E-15 1.5563199143924795E-15
rhumerus -49.44034062702699 -18.70129996735205 -75.04922043047841
rradius 23.637353532014927
rwrist -2.6554723842833106
rhand -21.43916339508287 27.49525073125583
rfingers 7.125020000000054
rthumb 4.923841652737611 -2.761164351665961
lclavicle -7.976760797094166E-16 -7.096008452210792E-15
lhumerus -36.26224530390024 -1.5570620779763953 85.02635715507387
lradius 28.935479195253112
lwrist 10.146697057314409
lhand -30.68108664044777 24.786220302887447
lfingers 7.125020000000039
lthumb -3.934658198270725 55.27752592127605
rfemur -27.060671476035054 26.49097655474472 40.635960515606556
rtibia 24.00562795896003
rfoot -9.00013967002773 -12.04948776745724
rtoes -2.608068324335189
lfemur -11.6964742605294 1.9535140147132868 -16.652851133430907
ltibia 60.44685347140644
lfoot 5.1037628631765415 -15.214401547392985
ltoes -15.562917669292455
215
root 0 0 0 -6.691710764739369 -2.5959439320578337 -1.9439549029627718
lowerback 13.287249916793357 0.7170010813928753 1.746343177083774
upperback 1.9919033800052421 1.3416271160729452 1.5544070381681299
thorax -5.301131221690513 0.7279975110606419 0.3424825701468883
lowerneck -17.771165414245345 -3.373812824332086 -1.9119632937032807
upperneck 18.1816051137086 -4.092388191795106 0.23648428648049746
head 8.551019033559477 -2.062716003856116 -0.12980790779574192
rclavicle 2.9118455668104667E-15 1.35814400960661E-15
rhumerus -48.99703831966918 -18.541736604151875 -75.11421770957979
rradius 23.847512981013963
rwrist -2.789598536869285
rhand -21.547823874517388 27.570804356810335
rfingers 7.125020000000055
rthumb 4.822073328507706 -2.6969535846604575
lclavicle -1.5342109241429945E-15 -7.15178016961608E-15
lhumerus -36.83362360573967 -1.2125503436435645 85.18661224817839
lradius 28.62680794954748
lwrist 9.706721832569336
lhand -30.79198308673048 24.447798912544915
lfingers 7.125020000000039
lthumb -4.038863745486225 54.960200190963796
rfemur -26.46718274104414 25.66429415817393 40.031597019258214
rtibia 24.366673680739325
rfoot -9.193826921884744 -11.782661704769392
rtoes -2.6061404754299886
lfemur -13.209506252972304 1.664667991581819 -16.19755741012517
ltibia 59.76040907221077
lfoot 5.125666126871057 -14.80421590737372
ltoes -15.409992790104981
216
root 0 0 0 -8.132077639808038 -5.496192994377944 -4.2635973616295315
lowerback 13.680187248877456 1.57117776799613 4.274597923057006
upperback 2.3059235938112685 2.7430301531206314 1.6082979061657996
thorax -5.1758823786834425 1.3787114000833247 -1.2192041370489397
lowerneck -17.55522248608208 -3.6619664630571034 -1.7411269301321495
upperneck 18.765838370550096 -4.685287112520467 0.7128790214997496
head 8.770060806047653 -2.284427957555868 -0.0807403400590696
rclavicle 2.90709448942991E-15 1.1371392472241832E-15
rhumerus -48.15356079531751 -18.19730051067355 -75.22013321929698
rradius 24.35045824576553
rwrist -3.027488471972184
rhand -21.78668344592569 27.75586656000577
rfingers 7.125020000000058
rthumb 4.599954813282359 -2.5349891590103315
lclavicle -3.321212936646289E-15 -6.989691823254978E-15
lhumerus -38.49751919352302 -0.17485536453056572 85.59347911395628
lradius 27.7551800821175
lwrist 8.244638197356007
lhand -31.113544986879063 23.428831141460833
lfingers 7.125020000000037
lthumb -4.341598320784151 54.00134058837934
rfemur -24.871315096654982 23.199020121490406 38.30637440178269
rtibia 25.4965662280401
rfoot -9.728112785515664 -11.107438606362477
rtoes -2.7112012096213434
lfemur -16.77473762302442 0.8987819969257007 -15.40455720756076
ltibia 57.19635188120393
lfoot 4.8454775168189315 -13.346233869657617
ltoes -14.902010395736296
217
root 0 0 0 -8.071346631831908 -7.150559169685678 -4.990426791487604
lowerback 13.661038423052766 1.842068261749845 4.958748694144642
upperback 2.2790159187315755 3.13564326348299 1.5533545687564274
thorax -5.2079316035599055 1.5486624592998202 -1.7055390487357744
lowerneck -17.284069448274764 -3.7387031663881967 -1.6798000474686314
upperneck 19.076172592056487 -4.879067971212887 0.8296233236066701
head 8.836423461586344 -2.355947229775078 -0.061409327366167554
rclavicle 3.0068286288229973E-15 1.026243037980107E-15
rhumerus -47.59279142546327 -17.997859342407086 -75.16941854846284
rradius 24.781662950918573
rwrist -3.1279463779982173
rhand -21.9804162136813 27.943103335668702
rfingers 7.12502000000006
rthumb 4.419768898306682 -2.363043431764803
lclavicle -4.2647230069593465E-15 -6.5699067900598904E-15
lhumerus -39.91238794914942 0.7220078112662582 85.89524276794151
lradius 27.214344335006007
lwrist 7.177991526403304
lhand -31.299872502027682 22.738168102597527
lfingers 7.125020000000036
lthumb -4.518360851064909 53.34258750244672
rfemur -23.37991413950712 20.640434477521026 36.69157206151664
rtibia 26.641793288232577
rfoot -10.300748151582342 -10.29559470536664
rtoes -2.9908508370573657
lfemur -18.880120132740466 0.09897554824625665 -15.434387564085464
ltibia 53.884607328410745
lfoot 4.015476727505487 -11.574836399263802
ltoes -14.289132269300845
218
root 0 0 0 -7.8226010592814745 -8.038389562251 -5.338406571443607
lowerback 13.640838317726935 1.9579225521164014 5.251639253109758
upperback 2.212128987913152 3.2924236027464144 1.513422823434548
thorax -5.273428269615649 1.611466390409153 -1.9268553814764688
lowerneck -17.139494065848275 -3.772760601491666 -1.653481028355051
upperneck 19.280945631634008 -4.971785694981983 0.8685056327932075
head 8.885407317955893 -2.3907902675847468 -0.055473206798221764
rclavicle 3.1408887031979718E-15 8.60817057113881E-16
rhumerus -47.18698272241051 -17.8470191067618 -74.83763265139528
rradius 25.188795901745202
rwrist -3.072073691670443
rhand -22.19217406047198 28.158824919399756
rfingers 7.125020000000061
rthumb 4.221148838421371 -2.1648421583290496
lclavicle -4.666940485873224E-15 -6.238819088873892E-15
lhumerus -41.05912120332934 1.4523268067714117 86.04723962842274
lradius 26.92487437363634
lwrist 6.34361100604503
lhand -31.446772938815762 22.264068161830608
lfingers 7.125020000000034
lthumb -4.658520267726498 52.89067614097141
rfemur -22.1204507939283 18.210497352753265 35.150047503771006
rtibia 27.838322838876962
rfoot -10.74811080971814 -9.725246150104446
rtoes -3.2961364172485403
lfemur -19.27877715786982 -1.1691707455056477 -16.314358648699653
ltibia 48.34995904704774
lfoot 2.237880993191528 -9.040552125140891
ltoes -13.34187017721561
219
root 0 0 0 -7.669528121883516 -8.323401964694899 -5.43477984074249
lowerback 13.640859807118552 1.9907319373768604 5.316318885133687
upperback 2.1789474475858253 3.3322216629389834 1.4877336391627047
thorax -5.30927842162072 1.626606347508975 -1.993427726813242
lowerneck -17.092080554921118 -3.7906187219878174 -1.6514497798012442
upperneck 19.379909162395105 -5.013033095646278 0.883474314170003
head 8.91421033510048 -2.407601771989783 -0.05314956609320798
rclavicle 3.1460346629178276E-15 5.630184633482013E-16
rhumerus -46.901547584778015 -17.75941044847042 -74.36123628500567
rradius 25.52606280561693
rwrist -2.973968211537777
rhand -22.37764099868075 28.35609884594374
rfingers 7.125020000000062
rthumb 4.046188940978759 -1.9833682280886755
lclavicle -4.819773152483515E-15 -6.123317514890266E-15
lhumerus -41.6615274447662 1.9523578661322771 86.05708996394821
lradius 26.81384287860462
lwrist 5.70783532833666
lhand -31.61057046120093 21.971883843931142
lfingers 7.125020000000033
lthumb -4.814733445557941 52.62633999218198
rfemur -21.378502359001658 16.447449998566725 33.96626035433778
rtibia 28.958208112801138
rfoot -10.812529585904842 -9.618691505491496
rtoes -3.6524687725624325
lfemur -16.382871997595927 -3.6054615118354985 -17.727818226165628
ltibia 38.076144325040055
lfoot -1.373770156506783 -5.419264006771829
ltoes -11.284747564618316
